<?xml version="1.0" encoding="UTF-8"?><svg width="458.96pt" height="394pt" version="1.0" viewBox="0 0 458.96 394" xmlns="http://www.w3.org/2000/svg"><g transform="translate(-20.293 447) scale(.1 -.1)" fill="#0038ff"><path d="m488 3979-285-491 209-359c115-198 244-419 286-492l78-132h574 574l283 485c156 267 282 492 280 501-1 9-128 233-282 498l-280 481h-575-576l-286-491z" /><path d="m2795 3989c-154-265-281-485-283-490s243-9 571-9h574l285-490 286-491 283 488c156 268 283 491 282 495-2 4-130 226-285 493l-282 485h-576-575l-280-481z" /><path d="m1916 2478c-8-13-138-235-288-494l-275-471 286-492 285-491h576 575l275 473c151 259 279 481 286 492 10 18-24 80-275 510l-286 490-572 3-572 2-15-22z" /></g></svg>
